PathFileType	4	(X/Y/Z)	C:\Users\Basilio\Documents\Thesis Gigler\squatting_fais\c3dfiles\077\SLS_front_pre1\markers_experimental.trc
DataRate	CameraRate	NumFrames	NumMarkers	Units	OrigDataRate	OrigDataStartFrame	OrigNumFrames
200.000000	200.000000	4	60	mm	200.000000	1151	3071
Frame#	Time	FHD			LBHD			RBHD			C7			T10			CLAV			LSHO			LUUPA			LMUPA			LDUPA			LLEP			LMEP			LRAD			LUL			LRFIN			RSHO			RUPA1			RMUPA			RDUPA			RLEP			RMEP			RRAD			RUL			RUFIN			LASI			RASI			USACR			LSACR			RSACR			LTHI1			LTHI2			LTHI3			LTHI4			LLFC			LMFC			LTIB1			LTIB2			LTIB3			LTIB4			LLMAL			LHEE			LMT1			LMT2			LMT5			RTHI			RTHI2			RTHI3			RTHI4			RLFC			RMFC			RTIB1			RTIB2			RTIB3			RTIB4			RLMAL			RMMAL			RHEE			RMT1			RMT2			RMT5			
		X1	Y1	Z1	X2	Y2	Z2	X3	Y3	Z3	X4	Y4	Z4	X5	Y5	Z5	X6	Y6	Z6	X7	Y7	Z7	X8	Y8	Z8	X9	Y9	Z9	X10	Y10	Z10	X11	Y11	Z11	X12	Y12	Z12	X13	Y13	Z13	X14	Y14	Z14	X15	Y15	Z15	X16	Y16	Z16	X17	Y17	Z17	X18	Y18	Z18	X19	Y19	Z19	X20	Y20	Z20	X21	Y21	Z21	X22	Y22	Z22	X23	Y23	Z23	X24	Y24	Z24	X25	Y25	Z25	X26	Y26	Z26	X27	Y27	Z27	X28	Y28	Z28	X29	Y29	Z29	X30	Y30	Z30	X31	Y31	Z31	X32	Y32	Z32	X33	Y33	Z33	X34	Y34	Z34	X35	Y35	Z35	X36	Y36	Z36	X37	Y37	Z37	X38	Y38	Z38	X39	Y39	Z39	X40	Y40	Z40	X41	Y41	Z41	X42	Y42	Z42	X43	Y43	Z43	X44	Y44	Z44	X45	Y45	Z45	X46	Y46	Z46	X47	Y47	Z47	X48	Y48	Z48	X49	Y49	Z49	X50	Y50	Z50	X51	Y51	Z51	X52	Y52	Z52	X53	Y53	Z53	X54	Y54	Z54	X55	Y55	Z55	X56	Y56	Z56	X57	Y57	Z57	X58	Y58	Z58	X59	Y59	Z59	X60	Y60	Z60	

1152	5.755	-317.4953613281251	1836.980834960938	-1045.683715820313	-454.2335815429689	1726.254516601563	-1118.163696289063	-461.9256591796876	1720.856079101563	-971.9874267578127	-496.7976379394532	1577.517944335938	-1057.405517578125	-467.1555786132814	1236.958374023438	-1046.099975585938	-329.1811828613282	1549.193481445313	-1050.065673828125	-348.0164794921876	1584.770141601563	-1223.855346679688	-172.4998779296875	1535.624145507813	-1325.756103515625	-143.4469299316407	1565.968383789063	-1298.662475585938	-103.6031341552735	1531.901733398438	-1330.31005859375	-39.17399597167969	1540.535400390625	-1325.523193359375	-34.13393020629884	1472.9365234375	-1294.661376953125	249.9808654785157	1574.153930664063	-1206.792114257813	257.1324768066407	1578.231079101563	-1285.847290039063	347.2083740234376	1606.586547851563	-1214.33837890625	-348.0284423828126	1580.166015625	-885.0994873046877	-186.3378601074219	1542.5078125	-780.0987548828127	-160.4977111816407	1571.13916015625	-812.2872314453127	-116.4840393066407	1544.383422851563	-780.3577270507815	-50.97385406494142	1552.10400390625	-789.6715087890627	-45.92211914062501	1479.622192382813	-819.8031005859377	232.0484924316407	1579.42626953125	-892.143981933594	242.5337829589844	1590.234130859375	-813.598571777344	329.9889831542969	1601.18701171875	-891.4722290039065	-248.7373504638672	1060.558837890625	-1167.791748046875	-273.3137512207032	1097.473999023438	-889.2252197265627	-464.6815490722657	1130.860229492188	-1040.185302734375	-464.1891479492189	1099.5849609375	-1068.393798828125	-470.5072021484376	1098.363647460938	-1012.907958984375	-289.6413269042969	832.1813964843752	-1204.219116210938	-252.3482055664063	756.6804199218751	-1196.867919921875	-205.3658905029297	765.0540771484376	-1196.753540039063	-276.1542053222657	704.3290405273439	-1178.586059570313	-234.5705261230469	561.0064697265626	-1146.513671875	-221.720443725586	550.8529052734376	-1014.996765136719	-236.8142700195313	341.1961669921876	-1054.542602539063	-273.6890563964844	294.9702453613282	-1121.284545898438	-244.1181945800782	290.9243774414063	-1084.961181640625	-266.8882141113282	219.139389038086	-1045.938720703125	-347.2556152343751	108.7546081542969	-1082.27783203125	-406.3739318847657	80.27767944335939	-1026.657592773438	-195.5679779052735	55.46819305419923	-1010.56396484375	-191.9672393798828	56.38593673706056	-1053.033203125	-318.0974731445313	125.4457092285157	-998.0674438476565	-117.4679641723633	848.271423339844	-802.2871704101565	-50.4682960510254	844.800964355469	-803.2088623046877	-30.36024284362794	871.3963012695315	-810.434265136719	-7.79557514190674	773.7817382812502	-810.4403076171877	34.28845214843751	724.1857299804689	-809.3304443359377	69.0697479248047	727.0650024414064	-934.3484497070315	148.389144897461	633.1756591796876	-821.313171386719	131.8515014648438	532.6326293945314	-788.0530395507815	171.0902404785157	550.7124023437501	-807.805358886719	198.4278106689454	514.4885864257814	-846.0225219726565	231.2223815917969	324.6496887207032	-802.5086669921877	252.7796325683594	345.2949218750001	-889.148132324219	205.3255767822266	253.8616638183594	-860.0754394531252	397.3908996582032	373.6742248535157	-839.0404052734377	390.8579711914064	373.1837158203126	-800.5181884765627	383.5143737792969	345.5515747070313	-753.9634399414064	
1153	5.76	-317.0648803710938	1836.165283203125	-1045.818237304688	-454.3684997558595	1726.770263671875	-1118.377807617188	-461.6646118164064	1720.141723632813	-972.0535888671877	-496.5672302246095	1576.768432617188	-1057.26708984375	-467.1430969238282	1236.415161132813	-1045.916625976563	-328.8914489746094	1548.52294921875	-1050.061279296875	-347.6332397460938	1583.893676757813	-1223.823852539063	-172.5535736083985	1535.08837890625	-1325.81640625	-143.5822906494141	1565.385009765625	-1298.680541992188	-104.0582656860352	1531.527587890625	-1330.334594726563	-38.87356185913087	1539.849609375	-1325.369018554688	-33.84106063842774	1472.24609375	-1294.637084960938	250.1726531982422	1573.583374023438	-1206.764526367188	257.1591491699219	1577.689086914063	-1285.8056640625	347.4206848144532	1605.94970703125	-1214.242797851563	-347.9443664550782	1579.7236328125	-885.2268066406252	-186.0083923339844	1542.427978515625	-780.0371704101565	-160.0805358886719	1570.600341796875	-812.3266601562502	-116.2399063110352	1543.880493164063	-780.3733520507815	-50.74048995971681	1551.495727539063	-789.762634277344	-45.53466033935548	1479.239868164063	-819.793151855469	232.3320312500001	1579.112548828125	-892.3210449218752	242.794418334961	1589.901000976563	-813.669860839844	330.2347717285157	1600.582275390625	-891.6824951171877	-248.8489990234376	1059.830932617188	-1167.634887695313	-273.5050354003907	1096.643188476563	-889.0701904296877	-464.9410095214845	1130.033935546875	-1040.013916015625	-465.5040588378907	1098.842529296875	-1067.899780273438	-472.211639404297	1097.705810546875	-1012.494384765625	-288.5257873535157	831.2193603515627	-1204.319580078125	-250.8111267089844	755.9868774414064	-1196.930541992188	-203.3425750732422	764.4812622070314	-1196.21484375	-273.6102294921876	703.2641601562501	-1178.440185546875	-232.2693176269532	560.4030151367189	-1146.229125976563	-220.1725769042969	550.2943725585939	-1014.933715820313	-235.7422485351563	340.8927307128907	-1054.1328125	-272.6900939941407	294.6478576660157	-1121.110107421875	-243.0669097900391	290.4039001464844	-1084.679565429688	-266.2861633300782	219.6570892333985	-1045.57763671875	-346.9843750000001	108.7845916748047	-1082.164794921875	-406.4114685058595	80.19246673583986	-1026.6181640625	-195.5941619873047	55.39284896850587	-1010.480590820313	-192.1283569335938	56.82198333740236	-1053.085815429688	-318.0661315917969	125.3140869140625	-997.892272949219	-117.5773315429688	847.6047973632815	-802.1655883789065	-50.77231597900392	843.9778442382815	-803.251647949219	-30.54331970214844	870.8792724609377	-810.3023071289065	-8.051976203918459	773.1433105468752	-810.4357910156252	34.16830825805665	723.6134033203126	-809.239440917969	68.9165725708008	726.6898193359376	-934.371520996094	148.3388824462891	632.6469726562501	-821.1190185546877	131.6906433105469	531.8690185546876	-787.8815917968752	170.9666900634766	550.0325927734376	-807.652282714844	198.3150024414063	513.9388427734376	-845.9384765625002	231.1365203857422	324.0006103515626	-802.3374633789065	253.2919311523438	344.6563110351563	-888.8069458007815	205.2781372070313	253.0981750488282	-860.0504150390627	397.3954467773439	373.0517578125001	-838.9854125976565	390.750213623047	372.7521362304688	-800.3621826171877	383.4424133300782	345.0898742675782	-753.8153076171876	
1154	5.765	-317.0986633300782	1835.885864257813	-1045.821655273438	-454.149871826172	1725.586669921875	-1118.319702148438	-461.3849182128907	1719.419067382813	-972.0386962890627	-496.3580322265626	1575.850830078125	-1057.22216796875	-467.1291503906251	1235.760620117188	-1045.784545898438	-328.6532897949219	1547.727905273438	-1050.021362304688	-347.4027099609376	1583.018676757813	-1223.723999023438	-172.5959014892578	1534.509887695313	-1325.866943359375	-143.2478332519532	1564.732055664063	-1298.607666015625	-103.316162109375	1530.562255859375	-1330.2470703125	-38.82386779785157	1539.386474609375	-1325.4326171875	-33.68115615844727	1471.67578125	-1294.862915039063	250.4402770996094	1572.959106445313	-1206.663452148438	256.7748718261719	1577.18115234375	-1285.71484375	348.4163513183594	1606.304809570313	-1214.1748046875	-347.5213317871094	1578.978637695313	-885.1854248046877	-185.6955108642578	1541.860595703125	-780.0285644531252	-159.8330078125	1569.874145507813	-812.3618774414065	-115.8412170410157	1543.675170898438	-779.662048339844	-50.51849365234376	1550.909912109375	-789.7951660156252	-45.27809143066407	1478.755615234375	-819.7935791015627	232.5440673828126	1578.687133789063	-892.4445800781252	243.2013702392579	1589.554565429688	-813.6597900390627	330.5113525390626	1600.327392578125	-891.5410156250002	-248.4891815185547	1058.839965820313	-1167.271728515625	-273.8771057128907	1095.646362304688	-888.8877563476565	-465.1426696777345	1129.262939453125	-1039.9326171875	-465.8311767578126	1098.046997070313	-1067.713745117188	-472.9512023925782	1096.743896484375	-1012.472534179688	-287.9878540039063	830.6231079101565	-1204.44921875	-250.2299499511719	755.8986206054689	-1197.177978515625	-202.4153289794922	764.2921752929689	-1196.19091796875	-272.0772094726563	702.6722412109376	-1178.365966796875	-230.0270538330079	559.9328002929689	-1146.085083007813	-218.5834197998047	550.0065917968751	-1014.686889648438	-234.5099334716797	340.7241516113282	-1053.5810546875	-271.7271728515626	294.5081176757813	-1120.66455078125	-242.1664428710938	290.1127929687501	-1084.438842773438	-265.7846984863282	218.4164581298829	-1045.238647460938	-346.5993041992188	108.70703125	-1082.083618164063	-406.3983154296876	80.21438598632814	-1026.526123046875	-195.5696563720704	55.3397903442383	-1010.362854003906	-192.1589508056641	56.8182945251465	-1052.929321289063	-317.9904479980469	125.313705444336	-997.631530761719	-117.728256225586	846.9119873046877	-802.0666503906252	-50.84836196899415	843.3636474609377	-802.9490966796877	-30.8315544128418	869.5747070312502	-810.147155761719	-8.161743164062502	772.308288574219	-810.3757934570315	34.13296127319337	722.9505004882814	-809.1563720703127	68.5231170654297	726.1854858398439	-934.3612060546877	148.1589508056641	631.9180908203126	-821.0339355468752	131.7092590332032	531.5865478515626	-787.9053344726565	171.1266326904297	549.3611450195314	-807.518249511719	198.2743530273438	513.2551879882814	-845.8148193359377	231.0633850097657	323.5507202148438	-802.1843261718752	253.2035369873047	344.3337097167969	-888.7849121093752	205.2673797607422	252.6507110595704	-859.9539794921877	397.259002685547	372.8223266601563	-838.9956054687502	390.6500549316407	372.1282043457032	-800.1817626953127	383.3412170410157	344.5228576660157	-753.6817016601564	
1155	5.77	-316.9602355957032	1835.12109375	-1045.897216796875	-453.7493591308595	1723.94287109375	-1118.171630859375	-461.3618164062501	1717.883422851563	-971.8782348632815	-496.045135498047	1575.33349609375	-1057.147338867188	-467.3213195800782	1235.015747070313	-1045.632934570313	-328.3437194824219	1546.959716796875	-1050.002563476563	-347.2135620117188	1582.306396484375	-1223.755004882813	-172.5990753173828	1533.706420898438	-1325.680297851563	-144.1414337158203	1564.215209960938	-1298.9140625	-102.9095001220703	1529.956787109375	-1330.201171875	-38.89695358276368	1538.780639648438	-1325.568969726563	-33.58063507080079	1471.086303710938	-1294.880249023438	250.6785125732422	1572.38671875	-1206.691650390625	256.9081726074219	1576.581909179688	-1285.614135742188	348.1328430175782	1605.131591796875	-1214.28369140625	-347.3732910156251	1578.347534179688	-885.265319824219	-185.2982940673828	1541.347534179688	-780.0671386718752	-159.5287170410157	1569.106323242188	-812.4785156250002	-115.6214828491211	1543.099365234375	-779.6865844726565	-50.1926612854004	1550.398193359375	-789.7934570312502	-44.93764877319337	1478.317138671875	-819.7266235351565	232.8184356689454	1578.293212890625	-892.457214355469	243.4609832763672	1589.23681640625	-813.8605957031252	330.7254333496094	1600.023803710938	-891.6822509765627	-248.7994384765626	1058.179931640625	-1167.278076171875	-274.0101928710938	1094.933471679688	-888.7871093750002	-465.2615966796876	1128.51513671875	-1039.847290039063	-466.1275329589845	1097.276733398438	-1067.659790039063	-473.349578857422	1095.981079101563	-1012.335144042969	-286.7136535644532	829.8856201171877	-1204.400268554688	-248.7855072021485	755.4295654296876	-1197.006469726563	-200.2478637695313	763.5776977539064	-1195.352661132813	-271.0923767089844	702.2313232421876	-1178.388916015625	-227.7980957031251	559.3312377929689	-1145.707153320313	-217.1011352539063	549.4702758789064	-1014.491577148438	-233.3074645996094	340.1897583007813	-1053.19775390625	-270.6045837402344	294.0680236816407	-1120.478149414063	-241.2511291503907	289.9883117675782	-1084.133422851563	-264.8470153808594	218.7165527343751	-1044.77197265625	-346.3980712890626	108.6048049926758	-1081.973022460938	-406.3217163085939	80.17531585693361	-1026.443725585938	-195.5584411621094	55.3295135498047	-1010.265686035156	-192.0760955810547	56.75620651245119	-1052.776977539063	-317.9390563964844	125.2099761962891	-997.3735961914065	-117.9166641235352	846.1817016601565	-802.086364746094	-50.90675735473634	842.8524169921877	-802.7167968750002	-30.91120719909669	869.3524169921877	-810.197204589844	-8.391013145446779	771.6234130859377	-810.2820434570315	33.9950180053711	722.4249877929689	-809.0061035156252	68.27857208251955	725.5103759765626	-934.279479980469	148.015853881836	631.3942871093751	-820.9282226562502	131.5565795898438	530.7870483398439	-787.7475585937502	171.1036834716797	548.7358398437501	-807.3900146484377	198.3241119384766	512.7379150390626	-845.7884521484377	230.9899291992188	322.9653625488282	-802.1075439453127	253.0226135253907	343.5418395996094	-888.8320312500002	205.3221740722657	252.1180572509766	-859.8445434570315	397.063201904297	371.5058898925782	-838.7378540039065	390.4409484863282	371.0562438964844	-800.1885986328127	383.2943115234376	343.9028930664063	-753.5195922851564	
